<svg width="44" height="44" viewBox="0 0 44 44" fill="none" xmlns="http://www.w3.org/2000/svg">
<path d="M15.8319 7.71733C18.5771 2.79466 19.9486 0.333328 22.0004 0.333328C24.0523 0.333328 25.4238 2.79466 28.1689 7.71733L28.8796 8.99133C29.6596 10.391 30.0496 11.0908 30.6563 11.5523C31.2629 12.0138 32.0213 12.185 33.5379 12.5273L34.9159 12.8393C40.2459 14.0462 42.9088 14.6485 43.5436 16.6873C44.1763 18.724 42.3606 20.8495 38.7271 25.0983L37.7868 26.1968C36.7554 27.4037 36.2376 28.0082 36.0058 28.7535C35.7739 29.501 35.8519 30.307 36.0079 31.9168L36.1509 33.3837C36.6991 39.0538 36.9743 41.8878 35.3146 43.1467C33.6549 44.4055 31.1589 43.2572 26.1713 40.9605L24.8778 40.3668C23.4608 39.7125 22.7523 39.3875 22.0004 39.3875C21.2486 39.3875 20.5401 39.7125 19.1231 40.3668L17.8318 40.9605C12.8419 43.2572 10.3459 44.4055 8.68843 43.1488C7.02659 41.8878 7.30176 39.0538 7.84993 33.3837L7.99293 31.919C8.14893 30.307 8.22693 29.501 7.99293 28.7557C7.76326 28.0082 7.24543 27.4037 6.2141 26.199L5.27376 25.0983C1.64026 20.8517 -0.175406 18.7262 0.457261 16.6873C1.08993 14.6485 3.75709 14.044 9.0871 12.8393L10.4651 12.5273C11.9796 12.185 12.7358 12.0138 13.3446 11.5523C13.9534 11.0908 14.3413 10.391 15.1213 8.99133L15.8319 7.71733Z" fill="#FFB800"/>
</svg>
